<svg xmlns="http://www.w3.org/2000/svg" width="1200" height="630" viewBox="0 0 1200 630" font-family="'JetBrains Mono', monospace">
  <defs>
    <linearGradient id="bg" x1="0" y1="0" x2="1" y2="1">
      <stop offset="0" stop-color="#0b1120"/>
      <stop offset="1" stop-color="#0f172a"/>
    </linearGradient>
    <radialGradient id="glow" cx="0.8" cy="0.05" r="0.7">
      <stop offset="0" stop-color="#f59e0b" stop-opacity="0.22"/>
      <stop offset="1" stop-color="#f59e0b" stop-opacity="0"/>
    </radialGradient>
    <pattern id="grid" width="44" height="44" patternUnits="userSpaceOnUse">
      <path d="M44 0H0V44" fill="none" stroke="#788aa3" stroke-opacity="0.06" stroke-width="1"/>
    </pattern>
  </defs>

  <rect width="1200" height="630" fill="url(#bg)"/>
  <rect width="1200" height="630" fill="url(#grid)"/>
  <rect width="1200" height="630" fill="url(#glow)"/>

  <text x="80" y="150" fill="#f59e0b" font-size="26" letter-spacing="6">car7os@devsecops:~$ whoami</text>

  <text x="78" y="300" fill="#e8edf6" font-size="92" font-weight="800" font-family="'Bricolage Grotesque', sans-serif">Carlos Vazquez Lara</text>

  <text x="80" y="370" font-size="40" font-weight="700" font-family="'Bricolage Grotesque', sans-serif">
    <tspan fill="#f59e0b">DevSecOps Engineer</tspan><tspan fill="#3a486a"> // </tspan><tspan fill="#c4cfe0">Ing. en Sistemas</tspan>
  </text>

  <g fill="#c4cfe0" font-size="24">
    <rect x="80" y="430" width="150" height="44" rx="22" fill="none" stroke="#1e2c49"/>
    <text x="105" y="459">Serverless</text>
    <rect x="248" y="430" width="90" height="44" rx="22" fill="none" stroke="#1e2c49"/>
    <text x="273" y="459">IaC</text>
    <rect x="356" y="430" width="120" height="44" rx="22" fill="none" stroke="#1e2c49"/>
    <text x="381" y="459">CI/CD</text>
    <rect x="494" y="430" width="100" height="44" rx="22" fill="none" stroke="#1e2c49"/>
    <text x="519" y="459">AWS</text>
  </g>

  <circle cx="90" cy="545" r="7" fill="#34d399"/>
  <text x="108" y="552" fill="#7e8aa3" font-size="22">Disponible para nuevos retos · CDMX</text>

  <g transform="translate(1010,470)">
    <rect x="0" y="0" width="110" height="110" rx="24" fill="#0b1120" stroke="#1e2c49" stroke-width="2"/>
    <path d="M30 42l18 16-18 16" fill="none" stroke="#f59e0b" stroke-width="9" stroke-linecap="round" stroke-linejoin="round"/>
    <path d="M62 74h24" fill="none" stroke="#e8edf6" stroke-width="9" stroke-linecap="round"/>
  </g>
</svg>
